<?xml version="1.0" encoding="utf-8"?>
<!-- Generator: Adobe Illustrator 22.0.1, SVG Export Plug-In . SVG Version: 6.00 Build 0)  -->
<svg version="1.1" id="圖層_1" xmlns="http://www.w3.org/2000/svg" xmlns:xlink="http://www.w3.org/1999/xlink" x="0px" y="0px"
	 viewBox="0 0 48 48" style="enable-background:new 0 0 48 48;" xml:space="preserve">
<style type="text/css">
	.st0{fill:none;}
	.st1{fill:#212529;}
</style>
<rect class="st0" width="48" height="48"/>
<g transform="translate(-0.008)">
	<g transform="translate(3.7 3.692)">
		<path class="st1" d="M31.8,40.6h-23C4,40.6,0,36.7,0,31.9c0,0,0,0,0,0v-23C0,3.9,3.9,0,8.8,0c0,0,0,0,0,0h23
			c4.9,0,8.8,3.9,8.8,8.8c0,0,0,0,0,0v23C40.6,36.7,36.7,40.6,31.8,40.6C31.8,40.6,31.8,40.6,31.8,40.6z M20.2,6.5
			c-8.2,0-14.8,5.4-14.8,12c0,3,1.3,5.8,3.5,7.8c2.4,2.2,5.5,3.7,8.8,4.1c0.7,0.2,1.2,0.4,1.3,0.7c0.1,0.4,0.1,0.9,0,1.3v0
			c-0.1,0.4-0.2,1.1-0.2,1.2l0,0c-0.1,0.3-0.1,0.6,0.1,0.8c0.1,0.1,0.3,0.2,0.4,0.2c0.3,0,0.6-0.1,0.8-0.2c1.7-0.7,8.6-5.1,11.6-8.6
			c2-2,3.2-4.6,3.2-7.4C35,11.9,28.4,6.5,20.2,6.5z"/>
		<g transform="translate(10.402 15.345)">
			<g transform="translate(0)">
				<path class="st1" d="M6.9,0.1h-1c-0.2,0-0.3,0.1-0.3,0.3v6.3c0,0.2,0.1,0.3,0.3,0.3c0,0,0,0,0,0h1c0.2,0,0.3-0.1,0.3-0.3V0.3
					C7.2,0.2,7,0.1,6.9,0.1"/>
				<path class="st1" d="M13.9,0.1h-1c-0.2,0-0.3,0.1-0.3,0.3v3.8L9.7,0.2c0,0,0,0,0,0l0,0l0,0l0,0H8.6c-0.2,0-0.3,0.1-0.3,0.3v6.3
					C8.3,6.9,8.4,7,8.5,7c0,0,0,0,0,0h1c0.2,0,0.3-0.1,0.3-0.3V2.9l2.9,3.9c0,0,0,0.1,0.1,0.1h1c0.2,0,0.3-0.1,0.3-0.3V0.3
					C14.2,0.2,14.1,0.1,13.9,0.1"/>
				<path class="st1" d="M4.4,5.4H1.6v-5C1.6,0.2,1.5,0,1.3,0h-1C0.1,0,0,0.2,0,0.3v6.3l0,0c0,0.1,0,0.1,0.1,0.2l0,0
					c0.1,0,0.1,0.1,0.2,0.1h4.1c0.2,0,0.3-0.1,0.3-0.3c0,0,0,0,0,0v-1C4.7,5.5,4.6,5.4,4.4,5.4"/>
				<path class="st1" d="M19.5,1.6c0.2,0,0.3-0.1,0.3-0.3c0,0,0,0,0,0v-1c0-0.2-0.1-0.3-0.3-0.3h-4.1c-0.1,0-0.1,0-0.2,0.1l0,0
					c0,0.1-0.1,0.1-0.1,0.2l0,0v6.3l0,0c0,0.1,0,0.1,0.1,0.2l0,0c0.1,0,0.1,0.1,0.2,0.1h4.1c0.2,0,0.3-0.1,0.3-0.3c0,0,0,0,0,0v-1
					c0-0.2-0.1-0.3-0.3-0.3h-2.8V4.3h2.8c0.2,0,0.3-0.1,0.3-0.3c0,0,0,0,0,0V3c0-0.2-0.1-0.3-0.3-0.3h-2.8v-1H19.5z"/>
			</g>
		</g>
	</g>
</g>
</svg>
