<?xml version="1.0" encoding="utf-8"?>
<!-- Generator: Adobe Illustrator 22.0.1, SVG Export Plug-In . SVG Version: 6.00 Build 0)  -->
<svg version="1.1" id="圖層_1" xmlns="http://www.w3.org/2000/svg" xmlns:xlink="http://www.w3.org/1999/xlink" x="0px" y="0px"
	 viewBox="0 0 100 100" style="enable-background:new 0 0 100 100;" xml:space="preserve">
<style type="text/css">
	.st0{fill:#212529;}
</style>
<g transform="translate(0 0)">
	<path class="st0" d="M50,90L50,90c-22.1,0-40-17.9-40-40s17.9-40,40-40s40,17.9,40,40C90,72.1,72.1,90,50,90L50,90z M50,13.2
		c-20.3,0-36.8,16.5-36.8,36.8S29.7,86.8,50,86.8l0,0c20.3,0,36.8-16.5,36.8-36.8S70.3,13.2,50,13.2z"/>
	<path class="st0" d="M50,78.3L50,78.3c-15.6,0-28.3-12.7-28.3-28.3S34.4,21.7,50,21.7S78.3,34.4,78.3,50l0,0
		C78.3,65.6,65.6,78.3,50,78.3L50,78.3z M50,24.9c-13.9-0.1-25.2,11.1-25.2,25c-0.1,13.9,11.1,25.2,25,25.2c0.1,0,0.2,0,0.3,0l0,0
		C63.9,75,75,63.7,75,49.9C74.9,36.1,63.8,25,50,24.9z"/>
	<path class="st0" d="M50,55c-2.8,0-5-2.2-5-5c0-2.8,2.2-5,5-5c2.8,0,5,2.2,5,5c0,1.3-0.5,2.6-1.5,3.5C52.6,54.5,51.3,55,50,55z
		 M50,48.2c-0.5,0-0.9,0.2-1.3,0.5c-0.7,0.7-0.7,1.8,0,2.5c0.7,0.7,1.8,0.7,2.5,0c0.7-0.7,0.7-1.8,0-2.5
		C50.9,48.4,50.5,48.2,50,48.2L50,48.2z"/>
</g>
<path class="st0" d="M52.4,49.2c-0.9,0-1.6-0.7-1.6-1.6c0-0.4,0.2-0.8,0.5-1.1l11-11c0.6-0.6,1.6-0.6,2.3,0c0.6,0.6,0.6,1.6,0,2.2
	l-11,11C53.2,49.1,52.8,49.2,52.4,49.2z"/>
<path class="st0" d="M47.6,49.2c-0.4,0-0.8-0.2-1.1-0.5l-8.2-8.2c-0.6-0.6-0.6-1.6,0-2.3s1.6-0.6,2.3,0l8.2,8.2
	c0.6,0.6,0.6,1.6,0,2.3C48.4,49,48,49.2,47.6,49.2z"/>
</svg>
