<?xml version="1.0" encoding="utf-8"?>
<!-- Generator: Adobe Illustrator 22.0.1, SVG Export Plug-In . SVG Version: 6.00 Build 0)  -->
<svg version="1.1" id="圖層_1" xmlns="http://www.w3.org/2000/svg" xmlns:xlink="http://www.w3.org/1999/xlink" x="0px" y="0px"
	 viewBox="0 0 48 48" style="enable-background:new 0 0 48 48;" xml:space="preserve">
<style type="text/css">
	.st0{fill:#212529;}
</style>
<g transform="translate(3.961 3.692)">
	<path class="st0" d="M19.7,4.2c5.3,0,5.9,0,8,0.1c1.2,0,2.5,0.2,3.7,0.7c0.9,0.3,1.6,0.8,2.3,1.5c0.7,0.6,1.2,1.4,1.5,2.3
		c0.4,1.2,0.7,2.4,0.7,3.7c0.1,2.1,0.1,2.7,0.1,8s0,5.9-0.1,8c0,1.2-0.2,2.5-0.7,3.7c-0.3,0.9-0.8,1.6-1.5,2.3
		c-0.6,0.7-1.4,1.2-2.3,1.5c-1.2,0.4-2.4,0.7-3.7,0.7c-2.1,0.1-2.7,0.1-8,0.1s-5.9,0-8-0.1c-1.2,0-2.5-0.2-3.7-0.7
		c-0.9-0.3-1.6-0.8-2.3-1.5c-0.7-0.6-1.2-1.4-1.5-2.3c-0.4-1.2-0.7-2.4-0.7-3.7c-0.1-2.1-0.1-2.7-0.1-8s0-5.9,0.1-8
		c0-1.2,0.2-2.5,0.7-3.7c0.3-0.9,0.8-1.6,1.5-2.3C6.5,5.8,7.2,5.3,8.1,5c1.2-0.4,2.4-0.7,3.7-0.7C13.8,4.2,14.5,4.2,19.7,4.2
		 M19.7,0.6c-5.3,0-6,0-8.1,0.1c-1.6,0-3.2,0.3-4.8,0.9C5.5,2.2,4.3,2.9,3.3,3.9c-1,1-1.8,2.2-2.3,3.5c-0.6,1.5-0.9,3.1-0.9,4.8
		C0.1,14.3,0,15,0,20.3s0,6,0.1,8.1c0,1.6,0.3,3.3,0.9,4.8c0.5,1.3,1.3,2.5,2.3,3.5c1,1,2.2,1.8,3.5,2.3c1.5,0.6,3.1,0.9,4.8,0.9
		c2.1,0.1,2.8,0.1,8.1,0.1s6,0,8.1-0.1c1.6,0,3.3-0.3,4.8-0.9c1.3-0.5,2.5-1.3,3.5-2.3c1-1,1.8-2.2,2.3-3.5c0.6-1.5,0.9-3.1,0.9-4.8
		c0.1-2.1,0.1-2.8,0.1-8.1s0-6-0.1-8.1c0-1.6-0.3-3.3-0.9-4.8c-0.5-1.3-1.3-2.5-2.3-3.5c-1-1-2.2-1.8-3.5-2.3
		c-1.5-0.6-3.1-0.9-4.8-0.9C25.7,0.7,25.1,0.6,19.7,0.6z"/>
	<path class="st0" d="M19.7,10.2c-5.6,0-10.1,4.5-10.1,10.1c0,5.6,4.5,10.1,10.1,10.1c5.6,0,10.1-4.5,10.1-10.1c0,0,0,0,0,0
		C29.8,14.7,25.3,10.2,19.7,10.2z M19.7,26.9c-3.6,0-6.6-2.9-6.6-6.6c0-3.6,2.9-6.6,6.6-6.6c3.6,0,6.6,2.9,6.6,6.6c0,0,0,0,0,0
		C26.3,23.9,23.3,26.9,19.7,26.9C19.7,26.9,19.7,26.9,19.7,26.9z"/>
	<circle class="st0" cx="30.2" cy="9.8" r="2.4"/>
</g>
</svg>
