<?xml version="1.0" encoding="utf-8"?>
<!-- Generator: Adobe Illustrator 22.0.1, SVG Export Plug-In . SVG Version: 6.00 Build 0)  -->
<svg version="1.1" id="圖層_1" xmlns="http://www.w3.org/2000/svg" xmlns:xlink="http://www.w3.org/1999/xlink" x="0px" y="0px"
	 viewBox="0 0 48 48" style="enable-background:new 0 0 48 48;" xml:space="preserve">
<style type="text/css">
	.st0{fill:none;}
	.st1{fill:#212529;}
</style>
<rect class="st0" width="48" height="48"/>
<rect x="4.9" y="3.7" class="st0" width="39.4" height="40.6"/>
<g transform="translate(4.923 3.692)">
	<path class="st1" d="M39.7,20.3c0-11-9-20-20-20s-20,9-20,20c0,9.8,7.2,18.2,16.9,19.7v-14h-5.1v-5.8h5.1v-4.4c0-5,3-7.8,7.6-7.8
		c1.5,0,3,0.2,4.5,0.4v4.9H26c-2.5,0-3.3,1.5-3.3,3.1v3.7h5.5l-0.9,5.8h-4.7v14C32.5,38.5,39.7,30.2,39.7,20.3z"/>
</g>
</svg>
