<?xml version="1.0" encoding="utf-8"?>
<!-- Generator: Adobe Illustrator 22.0.1, SVG Export Plug-In . SVG Version: 6.00 Build 0)  -->
<svg version="1.1" id="圖層_1" xmlns="http://www.w3.org/2000/svg" xmlns:xlink="http://www.w3.org/1999/xlink" x="0px" y="0px"
	 viewBox="0 0 100 94" style="enable-background:new 0 0 100 94;" xml:space="preserve">
<style type="text/css">
	.st0{fill:#212529;}
</style>
<path class="st0" d="M50,84.6c-0.4,0-0.7-0.1-1-0.4c-1.2-1.1-30-26.3-37.3-45.8C7.2,27.8,12,15.6,22.5,11.1s22.7,0.3,27.3,10.8
	c0.1,0.2,0.1,0.3,0.2,0.5c4.3-10.6,16.4-15.7,27-11.4C84.9,14.3,90,21.9,90,30.3c0,0.4,0,0.8,0,1.2c-0.1,18.5-37.4,51.3-39,52.7
	C50.7,84.5,50.4,84.6,50,84.6z M30.8,12.4C21,12.4,13,20.4,13,30.2c0,2.4,0.5,4.8,1.5,7c0,0,0,0,0,0.1C20.8,54.2,44.8,76.4,50,81.1
	c6-5.4,36.9-34,36.9-49.6c0,0,0-0.1,0-0.1c0-0.4,0-0.7,0-1.1c0-9.8-7.9-17.7-17.7-17.7c-9.8,0-17.7,7.9-17.7,17.7c0,0.1,0,0.2,0,0.3
	l0,0.2c0,0.4-0.1,0.8-0.4,1.1c-0.6,0.6-1.6,0.6-2.2,0c-0.3-0.3-0.4-0.7-0.4-1.1l0-0.1c0-0.2,0-0.3,0-0.5
	C48.5,20.4,40.5,12.4,30.8,12.4z"/>
</svg>
