<?xml version="1.0" encoding="utf-8"?>
<!-- Generator: Adobe Illustrator 22.0.1, SVG Export Plug-In . SVG Version: 6.00 Build 0)  -->
<svg version="1.1" id="圖層_1" xmlns="http://www.w3.org/2000/svg" xmlns:xlink="http://www.w3.org/1999/xlink" x="0px" y="0px"
	 viewBox="0 0 100 70" style="enable-background:new 0 0 100 70;" xml:space="preserve">
<style type="text/css">
	.st0{fill:#212529;}
</style>
<g>
	<path class="st0" d="M27.2,63C17.7,63,10,55.3,10,45.8c0-9.5,7.7-17.2,17.2-17.2c9.5,0,17.2,7.7,17.2,17.2
		C44.4,55.3,36.7,63,27.2,63z M27.2,31.8c-7.7,0-14,6.3-14,14c0,7.7,6.3,14,14,14s14-6.3,14-14l0,0C41.2,38.1,34.9,31.8,27.2,31.8z"
		/>
	<path class="st0" d="M72.8,63c-9.5,0-17.2-7.7-17.2-17.2c0-9.5,7.7-17.2,17.2-17.2c9.5,0,17.2,7.7,17.2,17.2
		C90,55.3,82.3,63,72.8,63z M72.8,31.8c-7.7,0-14,6.3-14,14c0,7.7,6.3,14,14,14c7.7,0,14-6.3,14-14C86.8,38.1,80.5,31.8,72.8,31.8z"
		/>
	<g transform="translate(1.967)">
		<path class="st0" d="M11.2,40.2c-0.9,0-1.6-0.7-1.6-1.6c0-0.2,0-0.3,0.1-0.5l8.8-25.8c1-3.9,5.8-6.2,10.8-5c0.9,0.2,1.4,1,1.2,1.9
			c-0.2,0.9-1,1.4-1.9,1.2c0,0,0,0,0,0c-3.3-0.8-6.5,0.5-7,2.7l0,0.1l-8.8,25.8C12.5,39.8,11.9,40.2,11.2,40.2z"/>
		<path class="st0" d="M84.7,40.2c-0.7,0-1.3-0.4-1.5-1.1l-8.8-26c-0.3-1.1-1.2-2-2.2-2.4c-1.5-0.6-3.2-0.7-4.7-0.3
			c-0.9,0.2-1.7-0.3-1.9-1.2c-0.2-0.8,0.3-1.7,1.2-1.9c2.2-0.6,4.6-0.4,6.8,0.5c2,0.8,3.5,2.5,4.1,4.5l8.8,25.8c0.3,0.8-0.2,1.7-1,2
			C85.1,40.2,84.9,40.2,84.7,40.2L84.7,40.2z"/>
	</g>
	<path class="st0" d="M57.2,47.4c-0.3,0-0.5-0.1-0.7-0.2c-2.1-0.9-4.3-1.3-6.6-1.3c-2.1-0.1-4.3,0.4-6.2,1.3
		c-0.8,0.5-1.7,0.2-2.2-0.6c-0.5-0.8-0.2-1.7,0.6-2.2c0,0,0,0,0,0c2.4-1.2,5.1-1.8,7.8-1.7c2.8,0,5.5,0.5,8,1.7
		c0.8,0.4,1.1,1.4,0.7,2.2C58.3,47,57.8,47.4,57.2,47.4L57.2,47.4z"/>
</g>
</svg>
