<?xml version="1.0" encoding="utf-8"?>
<!-- Generator: Adobe Illustrator 22.0.1, SVG Export Plug-In . SVG Version: 6.00 Build 0)  -->
<svg version="1.1" id="圖層_1" xmlns="http://www.w3.org/2000/svg" xmlns:xlink="http://www.w3.org/1999/xlink" x="0px" y="0px"
	 viewBox="0 0 100 100" style="enable-background:new 0 0 100 100;" xml:space="preserve">
<style type="text/css">
	.st0{fill:#212529;}
</style>
<g>
	<path class="st0" d="M50,90L50,90c-22.1,0-40-17.9-40-40s17.9-40,40-40s40,17.9,40,40C90,72.1,72.1,90,50,90L50,90z M50,13.2
		c-20.3,0-36.8,16.5-36.8,36.8S29.7,86.8,50,86.8l0,0c20.3,0,36.8-16.5,36.8-36.8C86.8,29.7,70.3,13.2,50,13.2L50,13.2z"/>
	<g transform="translate(34.247 14.374)">
		<path class="st0" d="M16.1,58.4c-7.2,0-13-5.5-13-12.2c0-0.9,0.7-1.6,1.6-1.6s1.6,0.7,1.6,1.6c0,4.9,4.4,9,9.8,9s9.8-4,9.8-9
			s-4.4-9-9.8-9c-7.2,0-13-5.5-13-12.2s5.8-12.2,13-12.2c3.8,0,7.4,1.5,9.9,4.3c0.6,0.7,0.5,1.7-0.1,2.2c0,0,0,0,0,0
			c-0.7,0.6-1.7,0.5-2.3-0.1c-1.9-2.1-4.7-3.3-7.6-3.3c-5.4,0-9.8,4-9.8,9s4.4,9,9.8,9c7.2,0,13,5.5,13,12.2S23.3,58.4,16.1,58.4z"
			/>
		<path class="st0" d="M15.8,64.2c-0.9,0-1.6-0.7-1.6-1.6V8.7c0-0.9,0.7-1.6,1.6-1.6s1.6,0.7,1.6,1.6v53.9
			C17.4,63.5,16.7,64.2,15.8,64.2z"/>
	</g>
</g>
</svg>
