<?xml version="1.0" encoding="utf-8"?>
<!-- Generator: Adobe Illustrator 22.0.1, SVG Export Plug-In . SVG Version: 6.00 Build 0)  -->
<svg version="1.1" id="圖層_1" xmlns="http://www.w3.org/2000/svg" xmlns:xlink="http://www.w3.org/1999/xlink" x="0px" y="0px"
	 viewBox="0 0 48 37.7" style="enable-background:new 0 0 48 37.7;" xml:space="preserve">
<style type="text/css">
	.st0{fill:#212529;}
</style>
<path class="st0" d="M47.7,11.2L47.7,11.2c0.1-0.1,0.1-0.1,0.1-0.2c0,0,0-0.1,0.1-0.1c0,0,0,0,0,0c0-0.1,0-0.1,0.1-0.1v-0.7
	c0-0.1,0-0.1-0.1-0.1c0-0.1,0-0.1-0.1-0.1c0-0.1-0.1-0.1-0.1-0.1l-0.1-0.1c0,0,0-0.1-0.1-0.1c0,0,0,0,0,0l-7.8-9.2
	c-0.3-0.3-0.6-0.5-1-0.5H9.1c-0.4,0-0.7,0.2-1,0.5l-7.8,9c0,0,0,0.1-0.1,0.1c0,0,0,0,0,0L0.2,9.6c0,0.1-0.1,0.1-0.1,0.1
	c0,0,0,0.1-0.1,0.1c0,0,0,0,0,0c0,0.1,0,0.1-0.1,0.1v0.7c0,0.1,0,0.1,0.1,0.1c0,0.1,0,0.1,0.1,0.1c0,0.1,0.1,0.1,0.1,0.1L0.3,11
	c0,0,0,0.1,0.1,0.1c0,0,0,0,0,0L23,37.3l0,0l0.1,0.1l0.1,0.1h0.1c0,0,0.1,0.1,0.1,0.1c0,0,0.1,0,0.1,0.1c0,0,0,0,0,0
	c0.1,0,0.1,0,0.1,0.1h0.8c0.1,0,0.1,0,0.1-0.1c0,0,0.1,0,0.1-0.1c0,0,0,0,0,0c0.1,0,0.1-0.1,0.1-0.1h0.1l0.1-0.1l0.1-0.1l0,0
	l22.7-26.3C47.7,11.2,47.7,11.2,47.7,11.2z M11.9,11.7l7.5,17.6L4.3,11.7H11.9z M25.3,11.7h7.9l-7.9,18.5L25.3,11.7z M22.7,30.1
	l-7.9-18.5h7.9V30.1z M36.1,11.7h7.7L28.6,29.3L36.1,11.7z M43.7,9h-7.7l-2.7-6.3h4.9L43.7,9z M33.2,9h-7.9V2.7h5.1L33.2,9z
	 M22.7,2.7V9h-7.9l2.7-6.3H22.7z M9.7,2.7h4.9L11.9,9H4.3L9.7,2.7z"/>
</svg>
