<?xml version="1.0" encoding="utf-8"?>
<!-- Generator: Adobe Illustrator 22.0.1, SVG Export Plug-In . SVG Version: 6.00 Build 0)  -->
<svg version="1.1" id="圖層_1" xmlns="http://www.w3.org/2000/svg" xmlns:xlink="http://www.w3.org/1999/xlink" x="0px" y="0px"
	 viewBox="0 0 50 50" style="enable-background:new 0 0 50 50;" xml:space="preserve">
<style type="text/css">
	.st0{fill:#212529;}
</style>
<g>
	<path class="st0" d="M25,11c-7.7,0-14,6.3-14,14c0,7.7,6.3,14,14,14h0c7.7,0,14-6.3,14-14S32.7,11,25,11z M25,15
		c5.5,0,10,4.5,10,10s-4.5,10-10,10c-5.5,0-10-4.5-10-10C15,19.5,19.5,15,25,15z"/>
	<rect x="23" class="st0" width="4" height="9"/>
	<rect x="23" y="41" class="st0" width="4" height="9"/>
	<rect x="41" y="23" class="st0" width="9" height="4"/>
	<rect y="23" class="st0" width="9" height="4"/>
	<rect x="35" y="8.5" transform="matrix(0.7071 -0.7071 0.7071 0.7071 4.1395 31.0058)" class="st0" width="9" height="4"/>
	<rect x="6" y="37.5" transform="matrix(0.7072 -0.707 0.707 0.7072 -24.8508 18.9921)" class="st0" width="9" height="4"/>
	<rect x="37.5" y="35" transform="matrix(0.7072 -0.7071 0.7071 0.7072 -16.3591 39.4907)" class="st0" width="4" height="9"/>
	<rect x="8.5" y="6" transform="matrix(0.7071 -0.7071 0.7071 0.7071 -4.3507 10.5038)" class="st0" width="4" height="9"/>
</g>
</svg>
