<?xml version="1.0" encoding="utf-8"?>
<!-- Generator: Adobe Illustrator 22.0.1, SVG Export Plug-In . SVG Version: 6.00 Build 0)  -->
<svg version="1.1" id="圖層_1" xmlns="http://www.w3.org/2000/svg" xmlns:xlink="http://www.w3.org/1999/xlink" x="0px" y="0px"
	 viewBox="0 0 80 49" style="enable-background:new 0 0 80 49;" xml:space="preserve">
<style type="text/css">
	.st0{fill:#212529;}
</style>
<g>
	<path class="st0" d="M0.9,31C0.3,31,0,30.7,0,30.1V18.9c0-0.3,0.1-0.5,0.2-0.7C0.4,18.1,0.6,18,0.8,18c0.2,0,0.4,0,0.5,0.1
		c0.1,0.1,0.3,0.2,0.4,0.4l7,9.3v-8.9c0-0.6,0.3-0.9,0.9-0.9c0.6,0,0.9,0.3,0.9,0.9v11.3c0,0.3-0.1,0.5-0.2,0.7
		C10.2,31,10,31,9.8,31c-0.2,0-0.4,0-0.5-0.1c-0.1-0.1-0.3-0.2-0.4-0.4l-7-9.3v8.9C1.7,30.7,1.5,31,0.9,31z"/>
	<path class="st0" d="M18.9,31c-0.4,0-0.6-0.1-0.8-0.4c-0.1-0.2-0.1-0.5,0-0.9l4.9-11c0.1-0.3,0.3-0.5,0.5-0.6
		c0.2-0.1,0.4-0.2,0.6-0.2c0.2,0,0.4,0.1,0.6,0.2c0.2,0.1,0.3,0.3,0.5,0.6l4.9,11c0.2,0.4,0.2,0.6,0,0.9c-0.1,0.2-0.4,0.3-0.7,0.3
		c-0.3,0-0.5-0.1-0.6-0.2c-0.2-0.1-0.3-0.3-0.4-0.6l-1.1-2.4h-6.5l-1,2.4c-0.1,0.3-0.3,0.5-0.4,0.6C19.3,31,19.1,31,18.9,31z
		 M24.1,20.2l-2.6,6.1h5.2L24.1,20.2L24.1,20.2z"/>
	<path class="st0" d="M43.1,31.1c-1.2,0-2.3-0.3-3.2-0.8C39,29.7,38.3,29,37.8,28c-0.5-1-0.7-2.1-0.7-3.5c0-1.3,0.2-2.5,0.7-3.5
		s1.2-1.7,2.1-2.3c0.9-0.5,2-0.8,3.2-0.8c1.2,0,2.3,0.3,3.2,0.8c0.9,0.5,1.6,1.3,2.1,2.3c0.5,1,0.7,2.1,0.7,3.5
		c0,1.3-0.2,2.5-0.7,3.5c-0.5,1-1.2,1.7-2.1,2.3C45.3,30.8,44.3,31.1,43.1,31.1z M43.1,29.4c1.3,0,2.3-0.4,3-1.3
		c0.7-0.9,1.1-2.1,1.1-3.6s-0.4-2.8-1.1-3.6c-0.7-0.9-1.7-1.3-3-1.3c-1.3,0-2.3,0.4-3,1.3c-0.7,0.9-1.1,2.1-1.1,3.6s0.4,2.8,1.1,3.6
		C40.8,29,41.8,29.4,43.1,29.4z"/>
	<path class="st0" d="M57.9,31c-0.6,0-0.9-0.3-0.9-0.9V18.9c0-0.6,0.3-0.9,0.9-0.9c0.3,0,0.5,0,0.6,0.1c0.1,0.1,0.3,0.3,0.4,0.5
		l4.5,8.4l4.5-8.4c0.1-0.2,0.3-0.4,0.4-0.5c0.1-0.1,0.3-0.1,0.6-0.1c0.6,0,0.8,0.3,0.8,0.9v11.3c0,0.6-0.3,0.9-0.8,0.9
		c-0.6,0-0.9-0.3-0.9-0.9v-8.6l-3.8,7c-0.1,0.2-0.2,0.3-0.3,0.4c-0.1,0.1-0.3,0.1-0.5,0.1c-0.2,0-0.4,0-0.5-0.1
		c-0.1-0.1-0.2-0.2-0.3-0.4l-3.8-7v8.6C58.8,30.7,58.5,31,57.9,31z"/>
	<path class="st0" d="M79.1,31c-0.6,0-0.9-0.3-0.9-1V18.9c0-0.6,0.3-1,0.9-1c0.6,0,0.9,0.3,0.9,1v11.1C80,30.7,79.7,31,79.1,31z"/>
</g>
</svg>
